<?xml version="1.0" standalone="no"?>
<!DOCTYPE svg PUBLIC "-//W3C//DTD SVG 20010904//EN"
 "http://www.w3.org/TR/2001/REC-SVG-20010904/DTD/svg10.dtd">
<svg version="1.0"
  xmlns="http://www.w3.org/2000/svg" width="512.000000pt" height="512.000000pt" viewBox="0 0 512.000000 512.000000" preserveAspectRatio="xMidYMid meet">
  <g transform="translate(0.000000,512.000000) scale(0.100000,-0.100000)" fill="#000000" stroke="none">
    <path d="M0 2560 l0 -2560 2560 0 2560 0 0 2560 0 2560 -2560 0 -2560 0 0
-2560z m1997 639 c43 -6 112 -24 153 -40 89 -34 215 -123 203 -142 -4 -7 -37
-55 -72 -105 l-63 -92 -45 41 c-24 22 -70 52 -101 67 -49 22 -71 26 -157 26
-97 1 -104 0 -177 -37 -91 -44 -146 -102 -192 -197 -28 -59 -31 -74 -31 -160
0 -86 3 -101 31 -160 46 -95 101 -153 192 -197 73 -36 80 -38 177 -38 95 0
104 2 176 37 135 66 225 171 406 473 59 98 134 211 165 251 197 245 476 335
755 243 35 -11 65 -24 68 -28 2 -5 -25 -52 -62 -105 l-66 -98 -36 9 c-20 4
-76 8 -126 8 -77 0 -99 -4 -148 -27 -119 -56 -162 -106 -312 -363 -48 -82
-111 -183 -139 -224 -118 -173 -293 -321 -449 -381 -422 -164 -877 147 -877
600 0 175 65 331 189 453 106 106 224 165 366 186 85 12 85 12 172 0z m1853
-611 c0 -124 -21 -215 -71 -318 -33 -68 -59 -101 -123 -165 -130 -129 -273
-188 -451 -188 -51 0 -118 7 -155 17 -79 20 -197 77 -245 120 l-36 31 65 94
c36 51 67 95 70 98 3 3 23 -9 45 -26 21 -17 66 -44 98 -59 51 -24 70 -27 158
-27 88 0 107 3 158 27 82 39 130 79 177 151 65 100 71 96 -154 99 l-195 3 80
118 80 117 250 0 249 0 0 -92z"/>
  </g>
</svg>
